<?xml version="1.0" encoding="iso-8859-1"?>
<!-- Generator: Adobe Illustrator 19.1.0, SVG Export Plug-In . SVG Version: 6.00 Build 0)  -->
<svg xmlns="http://www.w3.org/2000/svg" xmlns:xlink="http://www.w3.org/1999/xlink" version="1.1" id="Capa_1" x="0px" y="0px" viewBox="0 0 393.806 393.806" style="enable-background:new 0 0 393.806 393.806;" xml:space="preserve" width="512px" height="512px">
<g>
	<g>
		<g>
			<path d="M44.249,0v305.327h96.05l56.608,88.479l56.599-88.469h96.051V0H44.249z M239.31,242.769     l3.889,16.258l-41.543-6.751H187.9l-39.12,6.751l3.908-16.258l30.561-16.873c-0.762-2.863-0.997-6.263-0.997-9.926l-2.726-63.369     h-4.172l-93.823,38.817v-32.925l28.871-15.935v-23.898c0-3.019,2.433-5.462,5.462-5.462c2.99,0,5.442,2.433,5.442,5.462v17.889     l24.015-13.248v-22.608c0-3.019,2.423-5.462,5.452-5.462c3.009,0,5.462,2.423,5.462,5.462v16.59l19.11-10.552h2.208     l-1.807-41.973c0-10.132,8.236-18.339,18.358-18.339c10.132,0,18.329,8.207,18.329,18.339l-1.807,41.973h1.407l25.852,13.356     v-19.384c0-3.019,2.472-5.462,5.462-5.462c3.019,0,5.462,2.423,5.462,5.462v25.031l29.467,15.193V122.43     c0-3.009,2.443-5.462,5.462-5.462s5.471,2.433,5.471,5.462v24.142l23.097,11.92v32.925L212.042,152.6h-3.371l-2.697,63.369     c0,3.351-0.234,6.429-0.86,9.135L239.31,242.769z" fill="#919ca3"/>
		</g>
	</g>
</g>
<g>
</g>
<g>
</g>
<g>
</g>
<g>
</g>
<g>
</g>
<g>
</g>
<g>
</g>
<g>
</g>
<g>
</g>
<g>
</g>
<g>
</g>
<g>
</g>
<g>
</g>
<g>
</g>
<g>
</g>
</svg>
