<?xml version="1.0" encoding="iso-8859-1"?>
<!-- Generator: Adobe Illustrator 19.0.0, SVG Export Plug-In . SVG Version: 6.00 Build 0)  -->
<svg version="1.1" id="Layer_1" xmlns="http://www.w3.org/2000/svg" xmlns:xlink="http://www.w3.org/1999/xlink" x="0px" y="0px"
	 viewBox="0 0 240.273 240.273" style="enable-background:new 0 0 240.273 240.273;" xml:space="preserve">
<g>
	<g>
		<g>
			<path d="M217.982,164.093l3.093,0.831l2.568-1.914c5.449-4.06,9.238-9.597,10.96-16.012c4.334-16.182-5.899-33.041-22.813-37.58
				l-45.147-10.497L121.176,8.295l-27.473-7.36c-0.987-0.265-2.004-0.399-3.022-0.399c-5.268,0-9.902,3.556-11.266,8.648
				l-0.461,1.717l19.473,72.235l-36.11-8.119L35.966,44.63l-17.317-4.645c-0.875-0.231-1.776-0.348-2.678-0.348
				c-4.709,0-8.851,3.176-10.072,7.724l-0.311,1.155l3.488,36.559l-5.952,21.446L217.982,164.093z M28.626,56.357l26.547,30.614
				l61.723,13.877L93.649,14.613l18.367,4.92l45.591,90.864l50.857,11.818c9.814,2.687,15.803,12.248,13.365,21.356
				c-0.688,2.564-1.997,4.885-3.838,6.834L19.438,97.201l3.038-10.946l-3.091-32.378L28.626,56.357z"/>
			<rect y="203.363" width="240.273" height="13.226"/>
			<rect y="226.511" width="240.273" height="13.226"/>
		</g>
	</g>
</g>
<g>
</g>
<g>
</g>
<g>
</g>
<g>
</g>
<g>
</g>
<g>
</g>
<g>
</g>
<g>
</g>
<g>
</g>
<g>
</g>
<g>
</g>
<g>
</g>
<g>
</g>
<g>
</g>
<g>
</g>
</svg>
