<?xml version="1.0" encoding="iso-8859-1"?>
<!-- Generator: Adobe Illustrator 19.0.0, SVG Export Plug-In . SVG Version: 6.00 Build 0)  -->
<svg version="1.1" id="Layer_1" xmlns="http://www.w3.org/2000/svg" xmlns:xlink="http://www.w3.org/1999/xlink" x="0px" y="0px"
	 viewBox="0 0 240.273 240.273" style="enable-background:new 0 0 240.273 240.273;" xml:space="preserve">
<g>
	<g>
		<g>
			<path d="M3.399,127.113l28.317,23.386l10.958,19.372L238.08,57.051l0.465-3.17c0.983-6.723-0.251-13.318-3.573-19.074
				c-5.372-9.307-15.214-14.864-26.324-14.864c-5.698,0-11.361,1.53-16.374,4.422l-39.35,24.501L56.693,16.938L32.059,31.161
				c-5.571,3.217-7.486,10.368-4.27,15.938l0.888,1.539l64.848,37.305L62.25,105.736l-40.117-2.852l-15.528,8.959
				c-4.965,2.879-6.671,9.265-3.803,14.234L3.399,127.113z M25.233,116.367l40.415,2.874l53.46-33.835L41.693,40.869l16.467-9.507
				l96.486,32.015l44.321-27.603c2.985-1.702,6.327-2.601,9.675-2.601c6.329,0,11.889,3.084,14.871,8.249
				c1.33,2.301,2.044,4.867,2.121,7.543l-178.02,102.78l-5.592-9.887l-25.077-20.71L25.233,116.367z"/>
			<rect y="186.964" width="240.273" height="13.226"/>
			<rect y="210.109" width="240.273" height="13.226"/>
		</g>
	</g>
</g>
<g>
</g>
<g>
</g>
<g>
</g>
<g>
</g>
<g>
</g>
<g>
</g>
<g>
</g>
<g>
</g>
<g>
</g>
<g>
</g>
<g>
</g>
<g>
</g>
<g>
</g>
<g>
</g>
<g>
</g>
</svg>
